<!DOCTYPE svg PUBLIC "-//W3C//DTD SVG 1.1//EN" "http://www.w3.org/Graphics/SVG/1.1/DTD/svg11.dtd">
<!-- Uploaded to: SVG Repo, www.svgrepo.com, Transformed by: SVG Repo Mixer Tools -->
<svg width="800px" height="800px" viewBox="0 0 24 24" fill="none" xmlns="http://www.w3.org/2000/svg" stroke="#ffffff">
<g id="SVGRepo_bgCarrier" stroke-width="0"/>
<g id="SVGRepo_tracerCarrier" stroke-linecap="round" stroke-linejoin="round"/>
<g id="SVGRepo_iconCarrier"> <path fill-rule="evenodd" clip-rule="evenodd" d="M10 8C10 5.23858 12.2386 3 15 3C17.7614 3 20 5.23858 20 8C20 10.7614 17.7614 13 15 13C12.2386 13 10 10.7614 10 8ZM15 5C13.3431 5 12 6.34315 12 8C12 9.65685 13.3431 11 15 11C16.6569 11 18 9.65685 18 8C18 6.34315 16.6569 5 15 5Z" fill="#ffffff"/> <path d="M8.70711 10.2929C9.09763 10.6834 9.09763 11.3166 8.70711 11.7071L5.06066 15.3536C4.47487 15.9393 3.52513 15.9393 2.93934 15.3536L1.29289 13.7071C0.902369 13.3166 0.902369 12.6834 1.29289 12.2929C1.68342 11.9024 2.31658 11.9024 2.70711 12.2929L4 13.5858L7.29289 10.2929C7.68342 9.90237 8.31658 9.90237 8.70711 10.2929Z" fill="#ffffff"/> <path fill-rule="evenodd" clip-rule="evenodd" d="M15 14C13.0062 14 11.0954 14.2542 9.64442 14.8986C8.16516 15.5554 7 16.7142 7 18.5C7 18.9667 7.08524 19.4978 7.40272 20.0043C7.72017 20.5106 8.20786 20.8939 8.83781 21.1789C10.0469 21.7259 11.9839 22 15 22C18.0161 22 19.9531 21.7259 21.1622 21.1789C21.7921 20.8939 22.2798 20.5106 22.5973 20.0043C22.9148 19.4978 23 18.9667 23 18.5C23 16.7142 21.8348 15.5554 20.3556 14.8986C18.9046 14.2542 16.9938 14 15 14ZM9 18.5C9 17.7858 9.40184 17.1946 10.4561 16.7264C11.5386 16.2458 13.1278 16 15 16C16.8722 16 18.4614 16.2458 19.5439 16.7264C20.5982 17.1946 21 17.7858 21 18.5C21 18.7236 20.9602 18.8502 20.9027 18.942C20.8452 19.0338 20.7079 19.1893 20.3378 19.3567C19.5469 19.7145 17.9839 20 15 20C12.0161 20 10.4531 19.7145 9.66219 19.3567C9.29214 19.1893 9.15483 19.0338 9.09728 18.942C9.03976 18.8502 9 18.7236 9 18.5Z" fill="#ffffff"/> </g>
</svg>