<!DOCTYPE svg PUBLIC "-//W3C//DTD SVG 1.1//EN" "http://www.w3.org/Graphics/SVG/1.1/DTD/svg11.dtd">
<!-- Uploaded to: SVG Repo, www.svgrepo.com, Transformed by: SVG Repo Mixer Tools -->
<svg width="800px" height="800px" viewBox="0 0 1024 1024" class="icon" version="1.1" xmlns="http://www.w3.org/2000/svg" fill="#000000" stroke="#000000" transform="matrix(-1, 0, 0, 1, 0, 0)">
<g id="SVGRepo_bgCarrier" stroke-width="0"/>
<g id="SVGRepo_tracerCarrier" stroke-linecap="round" stroke-linejoin="round"/>
<g id="SVGRepo_iconCarrier">
<path d="M700.16 34.56a36.8 36.8 0 0 1 10.56 6.72 32 32 0 0 1 0 45.44 36.8 36.8 0 0 1-10.56 6.72 26.56 26.56 0 0 1-12.16 2.56 32 32 0 0 1-22.72-9.28A33.6 33.6 0 0 1 656 64a33.6 33.6 0 0 1 9.28-22.72A33.6 33.6 0 0 1 688 32a32 32 0 0 1 12.16 2.56zM637.76 179.84l-75.52 96A32 32 0 0 1 512 236.16l75.52-96a32 32 0 0 1 50.24 39.68zM486.72 371.84L376.64 512l336.64 428.16a32 32 0 0 1-50.24 39.68l-352-448a32 32 0 0 1 0-39.68l125.76-160a32 32 0 1 1 50.24 39.68z" fill="#ffffff"/>
</g>
</svg>